<svg id="visual" viewBox="0 0 900 450" width="900" height="450" xmlns="http://www.w3.org/2000/svg" xmlns:xlink="http://www.w3.org/1999/xlink" version="1.1"><rect x="0" y="0" width="900" height="450" fill="#eff3f5"></rect><defs><linearGradient id="grad1_0" x1="50%" y1="0%" x2="100%" y2="100%"><stop offset="10%" stop-color="#eff3f5" stop-opacity="1"></stop><stop offset="90%" stop-color="#eff3f5" stop-opacity="1"></stop></linearGradient></defs><defs><linearGradient id="grad2_0" x1="0%" y1="0%" x2="50%" y2="100%"><stop offset="10%" stop-color="#eff3f5" stop-opacity="1"></stop><stop offset="90%" stop-color="#eff3f5" stop-opacity="1"></stop></linearGradient></defs><g transform="translate(900, 0)"><path d="M0 225C-24.3 206 -48.7 187 -72.3 174.6C-96 162.2 -119 156.3 -143.5 143.5C-168.1 130.8 -194 111.2 -207.9 86.1C-221.7 61 -223.3 30.5 -225 0L0 0Z" fill="#424a6c"></path></g><g transform="translate(0, 450)"><path d="M0 -225C32.6 -225.8 65.3 -226.5 86.1 -207.9C106.9 -189.2 115.9 -151.1 125.2 -125.2C134.4 -99.2 144.1 -85.4 160.8 -66.6C177.4 -47.8 201.2 -23.9 225 0L0 0Z" fill="#424a6c"></path></g></svg>