<svg id="visual" viewBox="0 0 450 900" width="450" height="900" xmlns="http://www.w3.org/2000/svg" xmlns:xlink="http://www.w3.org/1999/xlink" version="1.1"><rect x="0" y="0" width="450" height="900" fill="#FFFFFF"></rect><defs><linearGradient id="grad1_0" x1="0%" y1="0%" x2="100%" y2="100%"><stop offset="30%" stop-color="#ffffff" stop-opacity="1"></stop><stop offset="70%" stop-color="#ffffff" stop-opacity="1"></stop></linearGradient></defs><defs><linearGradient id="grad2_0" x1="0%" y1="0%" x2="100%" y2="100%"><stop offset="30%" stop-color="#ffffff" stop-opacity="1"></stop><stop offset="70%" stop-color="#ffffff" stop-opacity="1"></stop></linearGradient></defs><g transform="translate(450, 0)"><path d="M0 292.5C-63.8 292.2 -127.7 291.8 -146.2 253.3C-164.8 214.8 -138.2 138.1 -155 89.5C-171.9 40.9 -232.2 20.5 -292.5 0L0 0Z" fill="#f8efe2"></path></g><g transform="translate(0, 900)"><path d="M0 -292.5C60.3 -290.1 120.5 -287.7 146.2 -253.3C172 -218.9 163.2 -152.5 181.9 -105C200.5 -57.5 246.5 -28.7 292.5 0L0 0Z" fill="#f8efe2"></path></g></svg>