<svg id="visual" viewBox="0 0 960 300" width="960" height="300" xmlns="http://www.w3.org/2000/svg" xmlns:xlink="http://www.w3.org/1999/xlink" version="1.1"><path d="M0 212L22.8 209.3C45.7 206.7 91.3 201.3 137 195.2C182.7 189 228.3 182 274 182.8C319.7 183.7 365.3 192.3 411.2 196.5C457 200.7 503 200.3 548.8 200.7C594.7 201 640.3 202 686 200C731.7 198 777.3 193 823 193.5C868.7 194 914.3 200 937.2 203L960 206L960 301L937.2 301C914.3 301 868.7 301 823 301C777.3 301 731.7 301 686 301C640.3 301 594.7 301 548.8 301C503 301 457 301 411.2 301C365.3 301 319.7 301 274 301C228.3 301 182.7 301 137 301C91.3 301 45.7 301 22.8 301L0 301Z" fill="#f7a031"></path><path d="M0 223L22.8 217.2C45.7 211.3 91.3 199.7 137 198.2C182.7 196.7 228.3 205.3 274 208.8C319.7 212.3 365.3 210.7 411.2 210C457 209.3 503 209.7 548.8 208.5C594.7 207.3 640.3 204.7 686 202.5C731.7 200.3 777.3 198.7 823 199.7C868.7 200.7 914.3 204.3 937.2 206.2L960 208L960 301L937.2 301C914.3 301 868.7 301 823 301C777.3 301 731.7 301 686 301C640.3 301 594.7 301 548.8 301C503 301 457 301 411.2 301C365.3 301 319.7 301 274 301C228.3 301 182.7 301 137 301C91.3 301 45.7 301 22.8 301L0 301Z" fill="#ff775d"></path><path d="M0 209L22.8 208.7C45.7 208.3 91.3 207.7 137 212C182.7 216.3 228.3 225.7 274 231.2C319.7 236.7 365.3 238.3 411.2 236.8C457 235.3 503 230.7 548.8 227.3C594.7 224 640.3 222 686 219C731.7 216 777.3 212 823 210.5C868.7 209 914.3 210 937.2 210.5L960 211L960 301L937.2 301C914.3 301 868.7 301 823 301C777.3 301 731.7 301 686 301C640.3 301 594.7 301 548.8 301C503 301 457 301 411.2 301C365.3 301 319.7 301 274 301C228.3 301 182.7 301 137 301C91.3 301 45.7 301 22.8 301L0 301Z" fill="#ea6087"></path><path d="M0 226L22.8 231.3C45.7 236.7 91.3 247.3 137 252.3C182.7 257.3 228.3 256.7 274 255.5C319.7 254.3 365.3 252.7 411.2 249.3C457 246 503 241 548.8 238.7C594.7 236.3 640.3 236.7 686 238.2C731.7 239.7 777.3 242.3 823 241.7C868.7 241 914.3 237 937.2 235L960 233L960 301L937.2 301C914.3 301 868.7 301 823 301C777.3 301 731.7 301 686 301C640.3 301 594.7 301 548.8 301C503 301 457 301 411.2 301C365.3 301 319.7 301 274 301C228.3 301 182.7 301 137 301C91.3 301 45.7 301 22.8 301L0 301Z" fill="#b65ea4"></path><path d="M0 253L22.8 255.3C45.7 257.7 91.3 262.3 137 264.3C182.7 266.3 228.3 265.7 274 263.3C319.7 261 365.3 257 411.2 256.3C457 255.7 503 258.3 548.8 257.2C594.7 256 640.3 251 686 253C731.7 255 777.3 264 823 266C868.7 268 914.3 263 937.2 260.5L960 258L960 301L937.2 301C914.3 301 868.7 301 823 301C777.3 301 731.7 301 686 301C640.3 301 594.7 301 548.8 301C503 301 457 301 411.2 301C365.3 301 319.7 301 274 301C228.3 301 182.7 301 137 301C91.3 301 45.7 301 22.8 301L0 301Z" fill="#7162aa"></path><path d="M0 270L22.8 270.2C45.7 270.3 91.3 270.7 137 270C182.7 269.3 228.3 267.7 274 268C319.7 268.3 365.3 270.7 411.2 273.7C457 276.7 503 280.3 548.8 280.8C594.7 281.3 640.3 278.7 686 278.2C731.7 277.7 777.3 279.3 823 278.8C868.7 278.3 914.3 275.7 937.2 274.3L960 273L960 301L937.2 301C914.3 301 868.7 301 823 301C777.3 301 731.7 301 686 301C640.3 301 594.7 301 548.8 301C503 301 457 301 411.2 301C365.3 301 319.7 301 274 301C228.3 301 182.7 301 137 301C91.3 301 45.7 301 22.8 301L0 301Z" fill="#1a5f97"></path></svg>