<svg id="visual" viewBox="0 0 960 300" width="960" height="300" xmlns="http://www.w3.org/2000/svg" xmlns:xlink="http://www.w3.org/1999/xlink" version="1.1"><path d="M0 232L22.8 226.8C45.7 221.7 91.3 211.3 137 211.2C182.7 211 228.3 221 274 220.8C319.7 220.7 365.3 210.3 411.2 205.8C457 201.3 503 202.7 548.8 198C594.7 193.3 640.3 182.7 686 187.3C731.7 192 777.3 212 823 217.8C868.7 223.7 914.3 215.3 937.2 211.2L960 207L960 301L937.2 301C914.3 301 868.7 301 823 301C777.3 301 731.7 301 686 301C640.3 301 594.7 301 548.8 301C503 301 457 301 411.2 301C365.3 301 319.7 301 274 301C228.3 301 182.7 301 137 301C91.3 301 45.7 301 22.8 301L0 301Z" fill="#f7a031"></path><path d="M0 248L22.8 247.3C45.7 246.7 91.3 245.3 137 238.8C182.7 232.3 228.3 220.7 274 217.3C319.7 214 365.3 219 411.2 226.7C457 234.3 503 244.7 548.8 243.2C594.7 241.7 640.3 228.3 686 225.5C731.7 222.7 777.3 230.3 823 234.2C868.7 238 914.3 238 937.2 238L960 238L960 301L937.2 301C914.3 301 868.7 301 823 301C777.3 301 731.7 301 686 301C640.3 301 594.7 301 548.8 301C503 301 457 301 411.2 301C365.3 301 319.7 301 274 301C228.3 301 182.7 301 137 301C91.3 301 45.7 301 22.8 301L0 301Z" fill="#d35d98"></path><path d="M0 248L22.8 251.2C45.7 254.3 91.3 260.7 137 266.3C182.7 272 228.3 277 274 272.8C319.7 268.7 365.3 255.3 411.2 251.7C457 248 503 254 548.8 256.2C594.7 258.3 640.3 256.7 686 255.3C731.7 254 777.3 253 823 252.2C868.7 251.3 914.3 250.7 937.2 250.3L960 250L960 301L937.2 301C914.3 301 868.7 301 823 301C777.3 301 731.7 301 686 301C640.3 301 594.7 301 548.8 301C503 301 457 301 411.2 301C365.3 301 319.7 301 274 301C228.3 301 182.7 301 137 301C91.3 301 45.7 301 22.8 301L0 301Z" fill="#1a5f97"></path></svg>