<svg id="visual" viewBox="0 0 960 540" width="960" height="540" xmlns="http://www.w3.org/2000/svg" xmlns:xlink="http://www.w3.org/1999/xlink" version="1.1"><path d="M0 60L20 60C40 60 80 60 120 64.5C160 69 200 78 240 80.8C280 83.7 320 80.3 360 72.3C400 64.3 440 51.7 480 47.2C520 42.7 560 46.3 600 52.7C640 59 680 68 720 68.8C760 69.7 800 62.3 840 60.5C880 58.7 920 62.3 940 64.2L960 66L960 0L940 0C920 0 880 0 840 0C800 0 760 0 720 0C680 0 640 0 600 0C560 0 520 0 480 0C440 0 400 0 360 0C320 0 280 0 240 0C200 0 160 0 120 0C80 0 40 0 20 0L0 0Z" fill="#d0d8e1"></path><path d="M0 152L20 156.5C40 161 80 170 120 180C160 190 200 201 240 202.8C280 204.7 320 197.3 360 197.3C400 197.3 440 204.7 480 198.3C520 192 560 172 600 182.7C640 193.3 680 234.7 720 242.8C760 251 800 226 840 222.5C880 219 920 237 940 246L960 255L960 64L940 62.2C920 60.3 880 56.7 840 58.5C800 60.3 760 67.7 720 66.8C680 66 640 57 600 50.7C560 44.3 520 40.7 480 45.2C440 49.7 400 62.3 360 70.3C320 78.3 280 81.7 240 78.8C200 76 160 67 120 62.5C80 58 40 58 20 58L0 58Z" fill="#c6cfda"></path><path d="M0 255L20 261.3C40 267.7 80 280.3 120 286.7C160 293 200 293 240 300.2C280 307.3 320 321.7 360 321.7C400 321.7 440 307.3 480 289.3C520 271.3 560 249.7 600 257.7C640 265.7 680 303.3 720 309.7C760 316 800 291 840 289.2C880 287.3 920 308.7 940 319.3L960 330L960 253L940 244C920 235 880 217 840 220.5C800 224 760 249 720 240.8C680 232.7 640 191.3 600 180.7C560 170 520 190 480 196.3C440 202.7 400 195.3 360 195.3C320 195.3 280 202.7 240 200.8C200 199 160 188 120 178C80 168 40 159 20 154.5L0 150Z" fill="#bcc6d3"></path><path d="M0 352L20 352.8C40 353.7 80 355.3 120 355.3C160 355.3 200 353.7 240 360C280 366.3 320 380.7 360 383.3C400 386 440 377 480 360C520 343 560 318 600 324.3C640 330.7 680 368.3 720 380.8C760 393.3 800 380.7 840 379.8C880 379 920 390 940 395.5L960 401L960 328L940 317.3C920 306.7 880 285.3 840 287.2C800 289 760 314 720 307.7C680 301.3 640 263.7 600 255.7C560 247.7 520 269.3 480 287.3C440 305.3 400 319.7 360 319.7C320 319.7 280 305.3 240 298.2C200 291 160 291 120 284.7C80 278.3 40 265.7 20 259.3L0 253Z" fill="#a9b4c3"></path><path d="M0 541L20 541C40 541 80 541 120 541C160 541 200 541 240 541C280 541 320 541 360 541C400 541 440 541 480 541C520 541 560 541 600 541C640 541 680 541 720 541C760 541 800 541 840 541C880 541 920 541 940 541L960 541L960 399L940 393.5C920 388 880 377 840 377.8C800 378.7 760 391.3 720 378.8C680 366.3 640 328.7 600 322.3C560 316 520 341 480 358C440 375 400 384 360 381.3C320 378.7 280 364.3 240 358C200 351.7 160 353.3 120 353.3C80 353.3 40 351.7 20 350.8L0 350Z" fill="#96a3b4"></path></svg>