<svg id="visual" viewBox="0 0 900 450" width="900" height="450" xmlns="http://www.w3.org/2000/svg" xmlns:xlink="http://www.w3.org/1999/xlink" version="1.1"><rect width="900" height="450" fill="#eeeeee"></rect><g><g transform="translate(885 435)"><path d="M0 -107.1L75.7 -75.7L107.1 0L75.7 75.7L0 107.1L-75.7 75.7L-107.1 0L-75.7 -75.7Z" fill="#ffffff"></path></g><g transform="translate(311 251)"><path d="M0 -83L58.7 -58.7L83 0L58.7 58.7L0 83L-58.7 58.7L-83 0L-58.7 -58.7Z" fill="#ffffff"></path></g><g transform="translate(138 98)"><path d="M0 -91L64.3 -64.3L91 0L64.3 64.3L0 91L-64.3 64.3L-91 0L-64.3 -64.3Z" fill="#ffffff"></path></g><g transform="translate(629 280)"><path d="M0 -72L50.9 -50.9L72 0L50.9 50.9L0 72L-50.9 50.9L-72 0L-50.9 -50.9Z" fill="#ffffff"></path></g><g transform="translate(843 98)"><path d="M0 -74L52.3 -52.3L74 0L52.3 52.3L0 74L-52.3 52.3L-74 0L-52.3 -52.3Z" fill="#ffffff"></path></g></g></svg>