<svg id="visual" viewBox="0 0 960 540" width="960" height="540" xmlns="http://www.w3.org/2000/svg" xmlns:xlink="http://www.w3.org/1999/xlink" version="1.1"><path d="M0 80L20 80C40 80 80 80 120 83.7C160 87.3 200 94.7 240 107.5C280 120.3 320 138.7 360 146.3C400 154 440 151 480 137.5C520 124 560 100 600 99.5C640 99 680 122 720 126.8C760 131.7 800 118.3 840 116.2C880 114 920 123 940 127.5L960 132L960 0L940 0C920 0 880 0 840 0C800 0 760 0 720 0C680 0 640 0 600 0C560 0 520 0 480 0C440 0 400 0 360 0C320 0 280 0 240 0C200 0 160 0 120 0C80 0 40 0 20 0L0 0Z" fill="#2d4e6a"></path><path d="M0 126L20 127.2C40 128.3 80 130.7 120 132C160 133.3 200 133.7 240 125.8C280 118 320 102 360 95.7C400 89.3 440 92.7 480 97.2C520 101.7 560 107.3 600 102.2C640 97 680 81 720 84.5C760 88 800 111 840 121C880 131 920 128 940 126.5L960 125L960 0L940 0C920 0 880 0 840 0C800 0 760 0 720 0C680 0 640 0 600 0C560 0 520 0 480 0C440 0 400 0 360 0C320 0 280 0 240 0C200 0 160 0 120 0C80 0 40 0 20 0L0 0Z" fill="#6a5b90"></path><path d="M0 100L20 92C40 84 80 68 120 67.7C160 67.3 200 82.7 240 89.8C280 97 320 96 360 90.2C400 84.3 440 73.7 480 69.7C520 65.7 560 68.3 600 76.2C640 84 680 97 720 95.8C760 94.7 800 79.3 840 75.7C880 72 920 80 940 84L960 88L960 0L940 0C920 0 880 0 840 0C800 0 760 0 720 0C680 0 640 0 600 0C560 0 520 0 480 0C440 0 400 0 360 0C320 0 280 0 240 0C200 0 160 0 120 0C80 0 40 0 20 0L0 0Z" fill="#bb5d91"></path><path d="M0 51L20 51.2C40 51.3 80 51.7 120 48.5C160 45.3 200 38.7 240 37.7C280 36.7 320 41.3 360 44.7C400 48 440 50 480 53.5C520 57 560 62 600 64C640 66 680 65 720 61.5C760 58 800 52 840 47.5C880 43 920 40 940 38.5L960 37L960 0L940 0C920 0 880 0 840 0C800 0 760 0 720 0C680 0 640 0 600 0C560 0 520 0 480 0C440 0 400 0 360 0C320 0 280 0 240 0C200 0 160 0 120 0C80 0 40 0 20 0L0 0Z" fill="#f36d6a"></path><path d="M0 40L20 36.7C40 33.3 80 26.7 120 27C160 27.3 200 34.7 240 40.2C280 45.7 320 49.3 360 46.7C400 44 440 35 480 30C520 25 560 24 600 23.3C640 22.7 680 22.3 720 22.3C760 22.3 800 22.7 840 24.2C880 25.7 920 28.3 940 29.7L960 31L960 0L940 0C920 0 880 0 840 0C800 0 760 0 720 0C680 0 640 0 600 0C560 0 520 0 480 0C440 0 400 0 360 0C320 0 280 0 240 0C200 0 160 0 120 0C80 0 40 0 20 0L0 0Z" fill="#f7a031"></path></svg>