<svg id="visual" viewBox="0 0 900 450" width="900" height="450" xmlns="http://www.w3.org/2000/svg" xmlns:xlink="http://www.w3.org/1999/xlink" version="1.1"><rect x="0" y="0" width="900" height="450" fill="#1F4E79"></rect><path d="M0 323L7.5 307.3C15 291.7 30 260.3 45 258.8C60 257.3 75 285.7 90 300.7C105 315.7 120 317.3 135 311.5C150 305.7 165 292.3 180 290.5C195 288.7 210 298.3 225 301.7C240 305 255 302 270 301.7C285 301.3 300 303.7 315 292.7C330 281.7 345 257.3 360 260.2C375 263 390 293 405 291.5C420 290 435 257 450 255.3C465 253.7 480 283.3 495 293C510 302.7 525 292.3 540 286.7C555 281 570 280 585 271.3C600 262.7 615 246.3 630 245.8C645 245.3 660 260.7 675 270.7C690 280.7 705 285.3 720 283.2C735 281 750 272 765 268.3C780 264.7 795 266.3 810 260.3C825 254.3 840 240.7 855 232.8C870 225 885 223 892.5 222L900 221L900 451L892.5 451C885 451 870 451 855 451C840 451 825 451 810 451C795 451 780 451 765 451C750 451 735 451 720 451C705 451 690 451 675 451C660 451 645 451 630 451C615 451 600 451 585 451C570 451 555 451 540 451C525 451 510 451 495 451C480 451 465 451 450 451C435 451 420 451 405 451C390 451 375 451 360 451C345 451 330 451 315 451C300 451 285 451 270 451C255 451 240 451 225 451C210 451 195 451 180 451C165 451 150 451 135 451C120 451 105 451 90 451C75 451 60 451 45 451C30 451 15 451 7.5 451L0 451Z" fill="#285d86" stroke-linecap="round" stroke-linejoin="miter"></path></svg>