<?xml version="1.0" encoding="UTF-8"?>
<svg id="Layer_2" data-name="Layer 2" xmlns="http://www.w3.org/2000/svg" xmlns:xlink="http://www.w3.org/1999/xlink" viewBox="0 0 630.72 244.01">
  <defs>
    <style>
      .cls-1 {
        fill: none;
      }

      .cls-2 {
        fill: #0042d1;
      }

      .cls-3 {
        fill: #21bff0;
      }

      .cls-4 {
        clip-path: url(#clippath-1);
      }

      .cls-5 {
        clip-path: url(#clippath);
      }
    </style>
    <clipPath id="clippath">
      <rect class="cls-1" x="157.46" width="335.09" height="109.47"/>
    </clipPath>
    <clipPath id="clippath-1">
      <rect class="cls-1" x="149.44" y="51.33" width="135.73" height="70.9"/>
    </clipPath>
  </defs>
  <g id="artwork">
    <g id="acquistion_lockup">
      <g id="an_IBM_Company" data-name="an IBM Company">
        <path d="M193.28,236.28c-2.28,0-3.21-1.39-3.44-3.25h-.19c-.85,2.44-2.98,3.71-5.76,3.71-4.22,0-6.69-2.32-6.69-6.03s2.71-5.84,8.51-5.84h3.95v-1.97c0-2.82-1.55-4.37-4.72-4.37-2.4,0-3.98,1.16-5.07,2.98l-1.86-1.74c1.08-2.13,3.48-3.91,7.08-3.91,4.8,0,7.66,2.51,7.66,6.73v10.99h2.28v2.71h-1.74ZM189.65,230.47v-3.29h-4.1c-3.52,0-5.11,1.08-5.11,3.02v.81c0,1.97,1.55,3.1,3.95,3.1,3.06,0,5.26-1.59,5.26-3.64Z"/>
        <path d="M199.63,236.28v-19.96h3.09v3.25h.15c.97-2.24,2.67-3.71,5.65-3.71,4.1,0,6.69,2.78,6.69,7.62v12.8h-3.09v-12.26c0-3.56-1.55-5.38-4.53-5.38-2.48,0-4.87,1.24-4.87,3.79v13.85h-3.09Z"/>
        <path d="M228.6,236.28v-2.7h3.79v-21.58h-3.79v-2.71h10.83v2.71h-3.79v21.58h3.79v2.71h-10.83Z"/>
        <path d="M245.55,209.28h11.1c4.45,0,7.2,2.75,7.2,6.96s-2.59,5.45-4.37,5.73v.23c1.93.12,5.3,1.78,5.3,6.27s-2.98,7.81-6.96,7.81h-12.26v-27ZM248.79,220.96h7.47c2.55,0,4.1-1.35,4.1-3.75v-1.32c0-2.4-1.55-3.75-4.1-3.75h-7.47v8.82ZM248.79,233.42h8.01c2.79,0,4.49-1.47,4.49-4.18v-1.31c0-2.71-1.7-4.18-4.49-4.18h-8.01v9.67Z"/>
        <path d="M271,209.28h4.33l7.74,14.54h.19l7.78-14.54h4.18v27h-3.17v-22.75h-.19l-2.28,4.53-6.46,11.76-6.46-11.76-2.28-4.53h-.19v22.75h-3.17v-27Z"/>
        <path d="M309.03,222.93c0-9.01,4.06-14.12,10.87-14.12,4.49,0,7.58,2.17,9.28,5.92l-2.63,1.59c-1.08-2.78-3.33-4.6-6.65-4.6-4.64,0-7.39,3.67-7.39,9.21v4.02c0,5.53,2.75,8.9,7.39,8.9,3.44,0,5.8-1.93,6.89-4.87l2.59,1.62c-1.7,3.79-4.99,6.15-9.48,6.15-6.81,0-10.87-4.8-10.87-13.81Z"/>
        <path d="M332.82,226.3c0-6.34,3.67-10.44,9.01-10.44s9.01,4.1,9.01,10.44-3.67,10.44-9.01,10.44-9.01-4.1-9.01-10.44ZM347.52,227.73v-2.86c0-4.22-2.36-6.27-5.69-6.27s-5.69,2.05-5.69,6.27v2.86c0,4.22,2.36,6.27,5.69,6.27s5.69-2.05,5.69-6.27Z"/>
        <path d="M356.15,236.28v-19.96h3.09v3.25h.15c.89-2.05,2.28-3.71,5.38-3.71,2.63,0,5.03,1.2,6.11,4.06h.08c.74-2.17,2.67-4.06,6.07-4.06,4.06,0,6.5,2.78,6.5,7.62v12.8h-3.09v-12.26c0-3.52-1.35-5.38-4.37-5.38-2.44,0-4.68,1.24-4.68,3.79v13.85h-3.09v-12.26c0-3.56-1.35-5.38-4.29-5.38-2.44,0-4.76,1.24-4.76,3.79v13.85h-3.09Z"/>
        <path d="M390.11,216.32h3.09v3.25h.15c1.05-2.51,3.09-3.71,5.84-3.71,4.99,0,8.12,4.06,8.12,10.44s-3.13,10.44-8.12,10.44c-2.75,0-4.64-1.24-5.84-3.71h-.15v10.99h-3.09v-27.7ZM404,228v-3.4c0-3.56-2.17-5.96-5.65-5.96-2.82,0-5.14,1.63-5.14,3.83v7.43c0,2.59,2.32,4.06,5.14,4.06,3.48,0,5.65-2.4,5.65-5.96Z"/>
        <path d="M427.25,236.28c-2.28,0-3.21-1.39-3.44-3.25h-.19c-.85,2.44-2.98,3.71-5.76,3.71-4.22,0-6.69-2.32-6.69-6.03s2.71-5.84,8.51-5.84h3.95v-1.97c0-2.82-1.55-4.37-4.72-4.37-2.4,0-3.98,1.16-5.07,2.98l-1.86-1.74c1.08-2.13,3.48-3.91,7.08-3.91,4.8,0,7.66,2.51,7.66,6.73v10.99h2.28v2.71h-1.74ZM423.61,230.47v-3.29h-4.1c-3.52,0-5.11,1.08-5.11,3.02v.81c0,1.97,1.55,3.1,3.95,3.1,3.06,0,5.26-1.59,5.26-3.64Z"/>
        <path d="M433.59,236.28v-19.96h3.09v3.25h.15c.97-2.24,2.67-3.71,5.65-3.71,4.1,0,6.69,2.78,6.69,7.62v12.8h-3.09v-12.26c0-3.56-1.55-5.38-4.53-5.38-2.48,0-4.87,1.24-4.87,3.79v13.85h-3.09Z"/>
        <path d="M467.75,216.32h3.06l-8.94,24.6c-.89,2.4-1.7,3.1-4.64,3.1h-1.59v-2.71h3.13l1.51-4.26-7.47-20.73h3.09l4.8,13.58.93,3.25h.19l1.08-3.25,4.84-13.58Z"/>
      </g>
      <g id="AST">
        <g>
          <g class="cls-5">
            <path class="cls-2" d="M390.47,30.69l-68.1-4.35c-18.93-.77-16.53,12.75,5.52,13.48,14.77,1.75,33.62,2.54,45,6.96,27.41,12.28,28.5,39.88,5.07,52.42-17.03,10.05-55.56,9.24-55.56,9.24h-16.14l-14.55-35.32h29.06c-9.88,7.62,9.15,9.36,13.29,9.15,22.55-.37,22.7-13.59,2.17-15.57-16.91-2.2-39.3-4.65-50.57-6.54l-17.84-42.39c18.81-20.65,49.58-15.42,73.68-16.15-25.7,2.67,32.11,20.44,48.97,29.07h0ZM409.62,108.6h42.77V30.4h40.18V1.38h-113.3c-35.06,1.15-22.02,7.68,13.6,29.28h16.75v77.94ZM157.94,108.02h46.18l3.82-10.35h7.25c-15.73-7.27-30.98-15.15-42.65-22.23l-14.6,32.58h0ZM306.24,108.44h-45.71l-5.58-10.77h-32.14c-1.04-.5-2.06-1.01-3.06-1.5-17.73-8.53-31.23-16.88-38.94-23.1-1.97-1.74-3.63-3.43-4.96-5.01l5.81-12.98.69-1.53L206.36.02h54.61l6.82,17.72c-11.53,17.15-2.13,41.62,17.94,42.34l6,12.96h-29.05c.83,26.5,25.18,30.1,43.59,35.39l-.02.02ZM245.54,72.16l-12.83-37.12-14.17,37.12h27Z"/>
          </g>
          <g class="cls-4">
            <path class="cls-3" d="M222.82,97.67c-1.04-.5-2.06-1.01-3.06-1.5-17.73-8.53-31.23-16.88-38.94-23.1-1.97-1.74-3.63-3.42-4.96-5.01-3.6-4.29-4.81-7.89-3.11-9.99,1.16-1.6,4.11-2.68,8.92-2.98l.69-1.53c-20.21-3-29.82-2.49-32.36.38-2.9,4.13,5.58,11.14,19.28,19.5,1.05.67,2.14,1.33,3.26,2.01,11.67,7.08,26.92,14.96,42.65,22.23,4.07,1.88,8.18,3.73,12.27,5.51,21.98,9.36,43.74,17.35,57.45,19.08-24.16-7.34-45.21-16.39-62.1-24.59v-.02Z"/>
          </g>
        </g>
        <g>
          <path class="cls-2" d="M30.97,159.35c2.53,0,4.53.45,5.99,1.34,1.46.89,2.19,2.48,2.19,4.77s-.77,3.92-2.29,4.81c-1.52.89-3.54,1.34-6.08,1.34h-3.69v10.66h-2.31v-22.92h6.2ZM30.88,169.37c1.23,0,2.27-.11,3.11-.33.85-.23,1.52-.63,2.01-1.19.49-.57.74-1.37.74-2.4,0-1.45-.5-2.46-1.49-3.02-.98-.57-2.36-.85-4.13-.85h-4.05v7.79h3.8Z"/>
          <path class="cls-2" d="M49.06,159.35c2.53,0,4.53.45,5.99,1.34,1.46.89,2.19,2.48,2.19,4.77s-.77,3.92-2.29,4.81c-1.52.89-3.54,1.34-6.08,1.34h-3.69v10.66h-2.31v-22.92h6.2ZM48.97,169.37c1.23,0,2.27-.11,3.11-.33.85-.23,1.52-.63,2.01-1.19.49-.57.74-1.37.74-2.4,0-1.45-.5-2.46-1.49-3.02-.98-.57-2.36-.85-4.13-.85h-4.05v7.79h3.8Z"/>
          <polygon class="cls-2" points="63.26 159.35 63.26 180.03 72.06 180.03 72.06 182.27 60.95 182.27 60.95 159.35 63.26 159.35"/>
          <rect class="cls-2" x="75.69" y="159.35" width="2.31" height="22.92"/>
          <path class="cls-2" d="M94.86,182.8c-2.48,0-4.66-.54-6.54-1.61-1.88-1.07-3.32-2.52-4.32-4.36-.99-1.85-1.49-3.89-1.49-6.15s.53-4.25,1.59-6.06c1.06-1.81,2.54-3.23,4.42-4.27,1.88-1.04,3.99-1.56,6.33-1.56,2.09,0,3.98.41,5.67,1.24,1.71.82,3.12,2.01,4.23,3.57l-1.82,1.37c-.98-1.29-2.16-2.27-3.53-2.93-1.37-.67-2.88-1.01-4.53-1.01-1.81,0-3.47.42-4.99,1.27-1.52.83-2.73,2-3.63,3.5-.9,1.5-1.36,3.2-1.36,5.09s.44,3.56,1.33,5.05c.88,1.49,2.09,2.66,3.63,3.51,1.54.84,3.25,1.27,5.15,1.27,1.6,0,3.07-.32,4.42-.95,1.35-.64,2.55-1.59,3.62-2.84l1.82,1.37c-1.17,1.49-2.62,2.62-4.33,3.38-1.71.76-3.6,1.15-5.69,1.15"/>
          <path class="cls-2" d="M126.32,182.27l-3.51-7.54h-10.05l-3.51,7.54h-2.38l10.69-22.92h.54l10.63,22.92h-2.4ZM113.78,172.57h8.01l-3.99-8.59-4.02,8.59Z"/>
          <polygon class="cls-2" points="134.54 161.58 129.37 161.58 129.37 159.35 141.95 159.35 141.95 161.58 136.85 161.58 136.85 182.27 134.54 182.27 134.54 161.58"/>
          <rect class="cls-2" x="145.22" y="159.35" width="2.31" height="22.92"/>
          <path class="cls-2" d="M164.15,182.85c-2.29,0-4.36-.54-6.21-1.62-1.84-1.09-3.28-2.55-4.32-4.38-1.04-1.84-1.56-3.82-1.56-5.94,0-2.23.53-4.27,1.59-6.12,1.06-1.85,2.5-3.32,4.32-4.39,1.82-1.07,3.82-1.61,5.99-1.61,2.28,0,4.36.53,6.22,1.58,1.88,1.05,3.35,2.5,4.42,4.35,1.07,1.84,1.61,3.87,1.61,6.11s-.53,4.24-1.59,6.08c-1.06,1.84-2.52,3.29-4.36,4.36-1.84,1.06-3.87,1.59-6.11,1.59M164.09,180.61c1.76,0,3.4-.42,4.88-1.27,1.49-.84,2.67-2.01,3.54-3.51.87-1.5,1.31-3.18,1.31-5.05s-.46-3.56-1.37-5.05c-.9-1.49-2.1-2.64-3.59-3.47-1.49-.83-3.08-1.25-4.78-1.25s-3.26.42-4.74,1.27c-1.48.83-2.67,2.01-3.56,3.51-.89,1.51-1.34,3.21-1.34,5.11s.44,3.48,1.33,4.96c.88,1.48,2.06,2.64,3.51,3.48,1.47.84,3.07,1.27,4.79,1.27"/>
          <polygon class="cls-2" points="196.44 159.35 198.73 159.35 198.73 182.27 198.23 182.27 183.07 164.93 183.07 182.27 180.76 182.27 180.76 159.35 181.25 159.35 196.44 176.91 196.44 159.35"/>
          <path class="cls-2" d="M209.19,182.85c-1.54,0-2.87-.4-3.98-1.21-1.1-.81-2.09-2.03-2.95-3.65l1.94-1.18c.68,1.25,1.43,2.2,2.23,2.84.81.64,1.67.95,2.56.95.78,0,1.5-.17,2.14-.52.66-.36,1.17-.83,1.53-1.43.38-.6.57-1.24.57-1.95s-.2-1.36-.6-1.97c-.4-.6-.97-1.23-1.71-1.88-.74-.64-2.04-1.71-3.89-3.2-.83-.66-1.48-1.25-1.94-1.76-.46-.51-.8-1.06-1.04-1.65-.23-.58-.34-1.29-.34-2.12,0-1.02.24-1.94.73-2.75.5-.82,1.17-1.46,2.01-1.92.85-.45,1.79-.69,2.81-.69,1.28,0,2.38.32,3.31.97.92.65,1.82,1.56,2.7,2.76l-1.85,1.44c-.5-.63-.94-1.15-1.33-1.53-.38-.39-.8-.69-1.28-.92-.48-.24-1.01-.36-1.61-.36-.65,0-1.2.13-1.67.4-.47.27-.83.63-1.07,1.07-.24.45-.36.92-.36,1.43,0,.73.21,1.41.64,2.04.42.63,1.04,1.24,1.85,1.83,1.7,1.23,3.01,2.26,3.93,3.07.93.8,1.68,1.68,2.23,2.61.57.93.85,1.97.85,3.1,0,1.07-.28,2.07-.85,3.02-.56.95-1.33,1.71-2.31,2.28-.97.57-2.07.86-3.28.86"/>
          <path class="cls-2" d="M242.41,182.85c-1.54,0-2.87-.4-3.98-1.21-1.1-.81-2.09-2.03-2.95-3.65l1.94-1.18c.68,1.25,1.43,2.2,2.23,2.84.81.64,1.67.95,2.56.95.78,0,1.5-.17,2.14-.52.66-.36,1.17-.83,1.53-1.43.38-.6.57-1.24.57-1.95s-.2-1.36-.6-1.97c-.4-.6-.97-1.23-1.71-1.88-.74-.64-2.04-1.71-3.89-3.2-.83-.66-1.48-1.25-1.94-1.76-.46-.51-.8-1.06-1.04-1.65-.23-.58-.34-1.29-.34-2.12,0-1.02.24-1.94.73-2.75.5-.82,1.17-1.46,2.01-1.92.85-.45,1.79-.69,2.81-.69,1.28,0,2.38.32,3.31.97.92.65,1.82,1.56,2.7,2.76l-1.85,1.44c-.5-.63-.94-1.15-1.33-1.53-.38-.39-.8-.69-1.28-.92-.48-.24-1.01-.36-1.61-.36-.65,0-1.2.13-1.67.4-.47.27-.83.63-1.07,1.07-.24.45-.36.92-.36,1.43,0,.73.21,1.41.64,2.04.42.63,1.04,1.24,1.85,1.83,1.7,1.23,3.01,2.26,3.93,3.07.93.8,1.68,1.68,2.23,2.61.57.93.85,1.97.85,3.1,0,1.07-.28,2.07-.85,3.02-.56.95-1.33,1.71-2.31,2.28-.97.57-2.07.86-3.28.86"/>
          <path class="cls-2" d="M264.1,182.85c-2.29,0-4.36-.54-6.21-1.62-1.84-1.09-3.28-2.55-4.32-4.38-1.04-1.84-1.56-3.82-1.56-5.94,0-2.23.53-4.27,1.59-6.12,1.06-1.85,2.5-3.32,4.32-4.39,1.82-1.07,3.82-1.61,5.99-1.61,2.28,0,4.36.53,6.22,1.58,1.88,1.05,3.35,2.5,4.42,4.35,1.07,1.84,1.61,3.87,1.61,6.11s-.53,4.24-1.59,6.08c-1.06,1.84-2.52,3.29-4.36,4.36-1.84,1.06-3.87,1.59-6.11,1.59M264.04,180.61c1.76,0,3.4-.42,4.88-1.27,1.49-.84,2.67-2.01,3.54-3.51.87-1.5,1.31-3.18,1.31-5.05s-.46-3.56-1.37-5.05c-.9-1.49-2.1-2.64-3.59-3.47-1.49-.83-3.08-1.25-4.78-1.25s-3.26.42-4.74,1.27c-1.48.83-2.67,2.01-3.56,3.51-.89,1.51-1.34,3.21-1.34,5.11s.44,3.48,1.33,4.96c.88,1.48,2.06,2.64,3.51,3.48,1.47.84,3.07,1.27,4.79,1.27"/>
          <polygon class="cls-2" points="280.71 159.35 292.2 159.35 292.2 161.58 283.02 161.58 283.02 168.78 292.2 168.78 292.2 171.01 283.02 171.01 283.02 182.27 280.71 182.27 280.71 159.35"/>
          <polygon class="cls-2" points="299.08 161.58 293.92 161.58 293.92 159.35 306.5 159.35 306.5 161.58 301.39 161.58 301.39 182.27 299.08 182.27 299.08 161.58"/>
          <path class="cls-2" d="M336.14,159.35l-6.55,22.92h-.45l-6.03-15.47-.79-2.09c-.45,1.11-.73,1.81-.83,2.09l-6.03,15.47h-.42l-6.54-22.92h2.35l3.96,14.07.76,2.78,1.06-2.71,5.47-14.15h.48l5.52,14.24,1.01,2.62c.33-1.15.58-2.01.73-2.59l3.96-14.27h2.34Z"/>
          <path class="cls-2" d="M357.25,182.27l-3.51-7.54h-10.05l-3.51,7.54h-2.38l10.69-22.92h.54l10.63,22.92h-2.4ZM344.71,172.57h8.01l-3.99-8.59-4.02,8.59Z"/>
          <path class="cls-2" d="M369.11,159.35c2.61,0,4.56.55,5.87,1.64,1.3,1.08,1.95,2.57,1.95,4.47,0,1.36-.34,2.5-1,3.41-.65.92-1.58,1.6-2.77,2.06-1.19.46-2.59.68-4.18.68l8.27,10.66h-2.84l-8.1-10.66h-1.43v10.66h-2.31v-22.92h6.55ZM368.98,169.37c1.76,0,3.13-.32,4.1-.95.97-.63,1.46-1.62,1.46-2.96,0-1.17-.42-2.11-1.25-2.81-.83-.7-2.07-1.06-3.72-1.06h-4.69v7.79h4.11Z"/>
          <polygon class="cls-2" points="381.44 159.35 394.53 159.35 394.53 161.55 383.75 161.55 383.75 168.8 394.53 168.8 394.53 170.96 383.75 170.96 383.75 180.03 394.53 180.03 394.53 182.27 381.44 182.27 381.44 159.35"/>
          <polygon class="cls-2" points="419.09 161.58 413.93 161.58 413.93 159.35 426.51 159.35 426.51 161.58 421.4 161.58 421.4 182.27 419.09 182.27 419.09 161.58"/>
          <polygon class="cls-2" points="429.78 159.35 442.87 159.35 442.87 161.55 432.09 161.55 432.09 168.8 442.87 168.8 442.87 170.96 432.09 170.96 432.09 180.03 442.87 180.03 442.87 182.27 429.78 182.27 429.78 159.35"/>
          <path class="cls-2" d="M458.21,182.8c-2.48,0-4.66-.54-6.54-1.61-1.88-1.07-3.32-2.52-4.32-4.36-.99-1.85-1.49-3.89-1.49-6.15s.53-4.25,1.59-6.06c1.06-1.81,2.54-3.23,4.42-4.27,1.88-1.04,3.99-1.56,6.33-1.56,2.09,0,3.98.41,5.67,1.24,1.71.82,3.12,2.01,4.23,3.57l-1.82,1.37c-.98-1.29-2.16-2.27-3.53-2.93-1.37-.67-2.88-1.01-4.53-1.01-1.81,0-3.47.42-4.99,1.27-1.52.83-2.73,2-3.63,3.5-.9,1.5-1.36,3.2-1.36,5.09s.44,3.56,1.33,5.05c.88,1.49,2.09,2.66,3.63,3.51,1.54.84,3.25,1.27,5.15,1.27,1.6,0,3.07-.32,4.42-.95,1.35-.64,2.55-1.59,3.62-2.84l1.82,1.37c-1.17,1.49-2.62,2.62-4.33,3.38-1.71.76-3.6,1.15-5.69,1.15"/>
          <polygon class="cls-2" points="472.81 159.35 475.12 159.35 475.12 168.95 486.79 168.95 486.79 159.35 489.09 159.35 489.09 182.27 486.79 182.27 486.79 171.19 475.12 171.19 475.12 182.27 472.81 182.27 472.81 159.35"/>
          <polygon class="cls-2" points="510.28 159.35 512.57 159.35 512.57 182.27 512.06 182.27 496.9 164.93 496.9 182.27 494.6 182.27 494.6 159.35 495.09 159.35 510.28 176.91 510.28 159.35"/>
          <path class="cls-2" d="M529.18,182.85c-2.29,0-4.36-.54-6.21-1.62-1.84-1.09-3.28-2.55-4.32-4.38-1.04-1.84-1.56-3.82-1.56-5.94,0-2.23.53-4.27,1.59-6.12,1.06-1.85,2.5-3.32,4.32-4.39,1.82-1.07,3.82-1.61,5.99-1.61,2.28,0,4.36.53,6.22,1.58,1.88,1.05,3.35,2.5,4.42,4.35,1.07,1.84,1.61,3.87,1.61,6.11s-.53,4.24-1.59,6.08c-1.06,1.84-2.52,3.29-4.36,4.36-1.84,1.06-3.87,1.59-6.11,1.59M529.12,180.61c1.76,0,3.4-.42,4.88-1.27,1.49-.84,2.67-2.01,3.54-3.51.87-1.5,1.31-3.18,1.31-5.05s-.46-3.56-1.37-5.05c-.9-1.49-2.1-2.64-3.59-3.47-1.49-.83-3.08-1.25-4.78-1.25s-3.26.42-4.74,1.27c-1.48.83-2.67,2.01-3.56,3.51-.89,1.51-1.34,3.21-1.34,5.11s.44,3.48,1.33,4.96c.88,1.48,2.06,2.64,3.51,3.48,1.47.84,3.07,1.27,4.79,1.27"/>
          <polygon class="cls-2" points="548.1 159.35 548.1 180.03 556.9 180.03 556.9 182.27 545.79 182.27 545.79 159.35 548.1 159.35"/>
          <path class="cls-2" d="M571.64,182.85c-2.29,0-4.36-.54-6.21-1.62-1.84-1.09-3.28-2.55-4.32-4.38-1.04-1.84-1.56-3.82-1.56-5.94,0-2.23.53-4.27,1.59-6.12,1.06-1.85,2.5-3.32,4.32-4.39,1.82-1.07,3.82-1.61,5.99-1.61,2.28,0,4.36.53,6.22,1.58,1.88,1.05,3.35,2.5,4.42,4.35,1.07,1.84,1.61,3.87,1.61,6.11s-.53,4.24-1.59,6.08c-1.06,1.84-2.52,3.29-4.36,4.36-1.84,1.06-3.87,1.59-6.11,1.59M571.58,180.61c1.76,0,3.4-.42,4.88-1.27,1.49-.84,2.67-2.01,3.54-3.51.87-1.5,1.31-3.18,1.31-5.05s-.46-3.56-1.37-5.05c-.9-1.49-2.1-2.64-3.59-3.47-1.49-.83-3.08-1.25-4.78-1.25s-3.26.42-4.74,1.27c-1.48.83-2.67,2.01-3.56,3.51-.89,1.51-1.34,3.21-1.34,5.11s.44,3.48,1.33,4.96c.88,1.48,2.06,2.64,3.51,3.48,1.47.84,3.07,1.27,4.79,1.27"/>
          <path class="cls-2" d="M611.75,171.26v.06c0,2.38-.49,4.44-1.46,6.17-.96,1.72-2.32,3.03-4.05,3.95-1.74.91-3.75,1.37-6.02,1.37-2.55,0-4.82-.55-6.79-1.65-1.97-1.1-3.48-2.56-4.54-4.39-1.07-1.83-1.59-3.82-1.59-5.94s.53-4.17,1.59-6c1.06-1.84,2.55-3.3,4.45-4.39,1.91-1.09,4.08-1.64,6.52-1.64,2.06,0,3.93.37,5.61,1.1,1.69.74,3.32,1.85,4.9,3.34l-1.76,1.65c-1.28-1.25-2.68-2.2-4.18-2.86-1.51-.66-3.01-1-4.5-1-1.92,0-3.66.43-5.23,1.28-1.56.85-2.78,2.01-3.68,3.5-.89,1.49-1.34,3.14-1.34,4.94s.45,3.38,1.37,4.88c.91,1.51,2.18,2.71,3.8,3.6,1.62.89,3.43,1.34,5.42,1.34,1.47,0,2.84-.27,4.11-.82,1.28-.55,2.34-1.36,3.19-2.43.84-1.06,1.37-2.34,1.58-3.83h-7.31v-2.23h9.9Z"/>
          <polygon class="cls-2" points="621.14 171.32 613.77 159.35 616.42 159.35 622.29 168.8 628.07 159.35 630.72 159.35 623.44 171.32 623.44 182.27 621.14 182.27 621.14 171.32"/>
          <path class="cls-2" d="M10.95,163.98l3.99,8.59H6.93l4.02-8.59ZM10.69,159.35L0,182.27h2.38l3.51-7.54h10.05l3.51,7.54h2.4l-10.63-22.92h-.54Z"/>
        </g>
      </g>
    </g>
  </g>
</svg>