<?xml version="1.0" encoding="UTF-8" standalone="no"?>
<!-- Generator: Adobe Illustrator 16.0.0, SVG Export Plug-In . SVG Version: 6.00 Build 0) -->

<svg
   xmlns:dc="http://purl.org/dc/elements/1.1/"
   xmlns:cc="http://creativecommons.org/ns#"
   xmlns:rdf="http://www.w3.org/1999/02/22-rdf-syntax-ns#"
   xmlns:svg="http://www.w3.org/2000/svg"
   xmlns="http://www.w3.org/2000/svg"
   xmlns:sodipodi="http://sodipodi.sourceforge.net/DTD/sodipodi-0.dtd"
   xmlns:inkscape="http://www.inkscape.org/namespaces/inkscape"
   version="1.1"
   id="Ebene_3"
   x="0px"
   y="0px"
   width="1242.614"
   height="211.49001"
   viewBox="0 0 1242.614 211.49"
   xml:space="preserve"
   sodipodi:docname="ICLogo2.svg"
   inkscape:version="0.92.4 (5da689c313, 2019-01-14)"><metadata
   id="metadata37"><rdf:RDF><cc:Work
       rdf:about=""><dc:format>image/svg+xml</dc:format><dc:type
         rdf:resource="http://purl.org/dc/dcmitype/StillImage" /><dc:title></dc:title></cc:Work></rdf:RDF></metadata><defs
   id="defs35">            </defs><sodipodi:namedview
   pagecolor="#ffffff"
   bordercolor="#666666"
   borderopacity="1"
   objecttolerance="10"
   gridtolerance="10"
   guidetolerance="10"
   inkscape:pageopacity="0"
   inkscape:pageshadow="2"
   inkscape:window-width="640"
   inkscape:window-height="480"
   id="namedview33"
   showgrid="false"
   inkscape:zoom="0.72173474"
   inkscape:cx="87.433141"
   inkscape:cy="116.31105"
   inkscape:current-layer="Ebene_3" /> <g
   style="fill:#84bd00;fill-opacity:1"
   id="g6"
   transform="translate(-1.998,-1)"> <path
   style="fill:#84bd00;fill-opacity:1"
   inkscape:connector-curvature="0"
   id="path2"
   d="M 154.916,52.293 C 97.135,105.145 98.494,157.08 160.74,212.49 H 125.47 C 48.118,166.444 47.29,106.121 89.724,52.295 Z" /> <path
   style="fill:#84bd00;fill-opacity:1"
   inkscape:connector-curvature="0"
   id="path4"
   d="M 16.24,112.008 C 38.357,66.65 31.467,20.104 1.998,1 L 55.826,1.029 C 85.189,36.39 63.26,83.896 43.482,112.022 Z" /> </g><rect
   style="fill:#55595a;fill-opacity:1"
   id="rect8"
   height="20.561001"
   width="20.57"
   y="51.292999"
   x="181.465" /><rect
   style="fill:#55595a;fill-opacity:1"
   id="rect10"
   height="65.755997"
   width="20.57"
   y="81.111"
   x="181.492" /><path
   style="fill:#55595a;fill-opacity:1"
   inkscape:connector-curvature="0"
   id="path12"
   d="m 316.145,111.75 -0.902,1.451 c -3.488,5.596 -8.762,9.45 -15.719,11.469 -5.066,1.541 -12,2.322 -20.59,2.322 -12.602,0 -21.855,-1.644 -27.52,-4.894 -7.469,-4.111 -11.102,-11.613 -11.102,-22.953 0,-11.314 3.594,-18.838 10.98,-23.021 5.684,-3.156 14.98,-4.764 27.641,-4.764 8.59,0 15.516,0.781 20.621,2.33 6.926,2.006 12.199,5.863 15.688,11.461 l 0.914,1.471 17.98,-8.684 -1.004,-1.791 C 323.8,59.651 305.573,51.29 278.933,51.29 c -38.949,0 -58.688,16.1 -58.688,47.855 0,31.669 19.738,47.721 58.688,47.721 26.68,0 44.953,-8.332 54.312,-24.785 l 1.023,-1.812 z" /><path
   style="fill:#55595a;fill-opacity:1"
   inkscape:connector-curvature="0"
   id="path14"
   d="m 459.02,146.867 c -19.008,0 -33.37,-3.246 -43.074,-9.729 -11.535,-7.803 -17.305,-20.488 -17.305,-38.057 0,-17.701 5.77,-30.387 17.305,-38.059 9.512,-6.486 23.872,-9.73 43.074,-9.73 26.941,0 44.806,6.684 53.591,20.057 l -11.113,5.213 c -4.266,-5.766 -10.853,-9.672 -19.762,-11.703 -5.056,-1.242 -12.625,-1.867 -22.716,-1.867 -15.215,0 -26.391,1.969 -33.534,5.9 -10.094,5.373 -15.133,15.436 -15.133,30.189 0,14.746 5.039,24.811 15.133,30.184 7.145,3.933 18.319,5.898 33.534,5.898 4.853,0 9.13,-0.146 12.837,-0.443 3.698,-0.289 6.93,-0.697 9.684,-1.227 8.973,-2.094 15.625,-6.033 19.957,-11.799 l 11.113,5.213 c -8.849,13.304 -26.713,19.96 -53.591,19.96" /><path
   style="fill:#55595a;fill-opacity:1"
   inkscape:connector-curvature="0"
   id="path16"
   d="m 888.922,144.019 c -4.004,0.92 -9.441,1.619 -16.328,2.114 -6.887,0.488 -15.375,0.734 -25.461,0.734 -28.785,0 -46.156,-5.015 -52.113,-15.043 l 11.496,-5.205 c 3.676,3.668 10.52,6.192 20.555,7.565 5.891,0.791 13.699,1.176 23.395,1.176 13.125,0 22.594,-0.385 28.426,-1.176 15.014,-2.031 22.521,-6.75 22.521,-14.16 0,-7.274 -7.648,-11.963 -22.918,-14.057 -2.816,-0.33 -6.555,-0.578 -11.211,-0.74 -4.656,-0.164 -10.354,-0.248 -17.104,-0.248 -16.451,0 -28.555,-1.082 -36.275,-3.24 -14.426,-3.805 -21.643,-11.67 -21.643,-23.602 0,-11.607 7.273,-19.438 21.824,-23.5 7.945,-2.232 20.824,-3.344 38.648,-3.344 6.949,0 12.938,0.148 18.004,0.441 5.047,0.293 9.258,0.705 12.664,1.23 12.852,1.965 21.578,6.189 26.164,12.684 l -11.398,5.408 c -3.871,-3.408 -10.758,-5.768 -20.65,-7.082 -5.846,-0.787 -13.545,-1.18 -23.105,-1.18 -12.93,0 -22.32,0.393 -28.223,1.18 -14.754,2.104 -22.117,6.824 -22.117,14.162 0,7.344 7.59,12.025 22.801,14.059 2.809,0.332 6.547,0.578 11.215,0.742 4.656,0.162 10.355,0.244 17.113,0.244 16.375,0 28.477,1.084 36.281,3.244 14.414,3.805 21.625,11.668 21.625,23.599 -0.002,12.193 -8.053,20.198 -24.186,23.995" /><polygon
   style="fill:#55595a;fill-opacity:1"
   id="polygon18"
   points="762.874,147.867 774.698,147.867 774.698,52.291 762.987,52.291 762.987,131.541 679.491,52.363 667.647,52.363 667.647,147.867 679.452,147.867 679.452,68.785 762.393,147.401 "
   transform="translate(-1.998,-1)" /><g
   style="fill:#55595a;fill-opacity:1"
   id="g22"
   transform="translate(-1.998,-1)"> <path
   style="fill:#55595a;fill-opacity:1"
   inkscape:connector-curvature="0"
   id="path20"
   d="m 1031.116,99.756 c 0,14.373 -3.621,24.354 -10.746,29.644 -6.055,4.416 -16.689,6.651 -31.578,6.651 -14.902,0 -25.512,-2.235 -31.555,-6.651 -7.133,-5.199 -10.746,-15.176 -10.746,-29.644 V 52.289 h -11.82 v 47.467 c 0,17.761 4.762,30.541 14.129,37.976 8.238,6.727 21.684,10.137 39.992,10.137 18.258,0 31.719,-3.41 39.984,-10.123 9.387,-7.432 14.141,-20.215 14.141,-37.988 V 52.289 h -11.801 z" /> </g><polygon
   style="fill:#55595a;fill-opacity:1"
   id="polygon24"
   points="1062.475,147.867 1157.795,147.867 1157.795,136.127 1074.288,136.127 1074.288,52.295 1062.475,52.295 "
   transform="translate(-1.998,-1)" /><polygon
   style="fill:#55595a;fill-opacity:1"
   id="polygon26"
   points="1137.44,52.293 1137.44,64.094 1185.206,64.094 1185.206,147.867 1196.936,147.867 1196.936,64.094 1244.612,64.094 1244.612,52.293 "
   transform="translate(-1.998,-1)" /><path
   style="fill:#55595a;fill-opacity:1"
   inkscape:connector-curvature="0"
   id="path28"
   d="m 585.375,62.99 c -15.199,0 -26.375,1.965 -33.539,5.91 -10.078,5.369 -15.121,15.434 -15.121,30.18 0,14.741 5.043,24.801 15.121,30.183 7.164,3.93 18.34,5.901 33.539,5.901 15.199,0 26.422,-1.974 33.629,-5.901 10.04,-5.382 15.04,-15.439 15.04,-30.183 0,-14.678 -5,-24.754 -15.04,-30.18 -7.207,-3.945 -18.43,-5.91 -33.629,-5.91 m 0,83.877 c -19,0 -33.352,-3.248 -43.055,-9.744 -11.552,-7.658 -17.306,-20.351 -17.306,-38.043 0,-17.703 5.754,-30.387 17.306,-38.059 9.496,-6.49 23.854,-9.727 43.055,-9.727 19.02,0 33.402,3.236 43.161,9.727 11.547,7.672 17.324,20.355 17.324,38.059 0,17.692 -5.777,30.385 -17.324,38.043 -9.759,6.496 -24.141,9.744 -43.161,9.744" /> </svg>